<svg xmlns="http://www.w3.org/2000/svg" height="493pt" viewBox="-18 0 493 493.60123" width="493pt"><path d="m357 71.402344c-1.890625-1.855469-4.453125-2.863282-7.097656-2.800782-2.648438-.0625-5.210938.945313-7.101563 2.800782l-17.101562 17.097656c-.097657.101562-.296875.203125-.398438.300781l-.398437.402344-60.601563 60.796875c-1.351562 1.339844-2.289062 3.042969-2.699219 4.902344l-8.300781 37.800781c-.707031 3.324219.308594 6.78125 2.699219 9.199219 1.882812 1.878906 4.441406 2.925781 7.101562 2.898437.734376-.019531 1.46875-.085937 2.199219-.199219l37.800781-8.300781c1.875-.367187 3.585938-1.3125 4.898438-2.699219l60.800781-60.699218c.101563-.101563.300781-.199219.398438-.300782.125-.113281.226562-.25.300781-.398437l17.199219-17.101563c1.882812-1.882812 2.929687-4.441406 2.902343-7.101562-.019531-2.621094-1.0625-5.132812-2.902343-7zm-7 21.097656 15.5 15.5-3.398438 3.402344-15.5-15.5zm-54.199219 84.902344-19.699219 4.300781 4.300782-19.703125 52-52.097656 15.398437 15.398437zm0 0"></path><path d="m320.300781 0c-47.816406-.203125-92.230469 24.699219-117 65.601562h-103.699219c-2.648437-.0625-5.210937.945313-7.101562 2.800782l-89.097656 89.199218c-1.933594 1.820313-3.054688 4.34375-3.101563 7v278.800782c0 27.597656 22.800781 50.199218 50.398438 50.199218h239.300781c27.695312-.117187 50.128906-22.507812 50.300781-50.199218v-169.902344c66-9.597656 117.699219-66.898438 117.699219-136 0-75.898438-61.800781-137.5-137.699219-137.5zm-231 99.402344v31.097656c.109375 13.199219-10.5 23.992188-23.699219 24.101562h-30.800781zm200.699219 374.199218h-239.300781c-16.5 0-30.398438-13.699218-30.398438-30.199218v-268.800782h45.300781c11.648438-.035156 22.804688-4.707031 31.003907-12.980468 8.199219-8.273438 12.765625-19.472656 12.695312-31.121094v-44.898438h83.800781c-19.546874 47.5-10.859374 101.941407 22.5 141h-90.101562c-5.523438 0-10 4.476563-10 10 0 5.523438 4.476562 10 10 10h111.101562c23.097657 18 51.597657 28.199219 83.597657 28.300782v168.5c.101562 16.5-13.699219 30.199218-30.199219 30.199218zm30.300781-218.699218c-64.867187-.066406-117.433593-52.636719-117.5-117.5 0-64.800782 52.699219-117.601563 117.5-117.601563s117.601563 52.800781 117.601563 117.601563c-.078125 64.898437-52.703125 117.476562-117.601563 117.5zm0 0"></path><path d="m85.101562 226.601562h-29.5c-5.523437 0-10 4.476563-10 10 0 5.523438 4.476563 10 10 10h29.5c5.523438 0 10-4.476562 10-10 0-5.523437-4.476562-10-10-10zm0 0"></path><path d="m285.101562 306.601562h-159.5c-5.523437 0-10 4.476563-10 10 0 5.523438 4.476563 10 10 10h159.5c5.523438 0 10-4.476562 10-10 0-5.523437-4.476562-10-10-10zm0 0"></path><path d="m85.101562 306.601562h-29.5c-5.523437 0-10 4.476563-10 10 0 5.523438 4.476563 10 10 10h29.5c5.523438 0 10-4.476562 10-10 0-5.523437-4.476562-10-10-10zm0 0"></path><path d="m285.101562 386.601562h-159.5c-5.523437 0-10 4.476563-10 10 0 5.523438 4.476563 10 10 10h159.5c5.523438 0 10-4.476562 10-10 0-5.523437-4.476562-10-10-10zm0 0"></path><path d="m85.101562 386.601562h-29.5c-5.523437 0-10 4.476563-10 10 0 5.523438 4.476563 10 10 10h29.5c5.523438 0 10-4.476562 10-10 0-5.523437-4.476562-10-10-10zm0 0"></path></svg>