<svg xmlns="http://www.w3.org/2000/svg" height="512" viewBox="0 0 64 64" width="512"><g id="Junction-Water-System-Pipe-Industry"><path d="m26 54h12v6h-12z"></path><rect height="6" rx="1" width="18" x="23" y="46"></rect><path d="m39.07 17.54-6.36 6.37a1.014 1.014 0 0 1 -1.42 0l-6.36-6.37-8.49 8.49 9.27 9.26a1.033 1.033 0 0 1 .29.71v8h12v-8a1.033 1.033 0 0 1 .29-.71l9.27-9.26zm-15.07 8.874v1.586h-2v-4a1 1 0 0 1 1-1h4v2h-1.586l4.293 4.293-1.414 1.414zm10.293 11.293-1.293-1.293v5.586h-2v-5.586l-1.293 1.293-1.414-1.414 3-3a1 1 0 0 1 1.414 0l3 3zm5.707-9.707v-1.586l-4.293 4.293-1.414-1.414 4.293-4.293h-1.586v-2h4a1 1 0 0 1 1 1v4z"></path><path d="m17.86 10.47-5.66-5.65-8.48 8.48 5.65 5.66z"></path><path d="m51.8 26.03 2.83-2.83a1 1 0 0 0 0-1.41l-11.32-11.32a1 1 0 0 0 -1.41 0l-2.83 2.83a1.014 1.014 0 0 0 0 1.42l11.31 11.31a1.027 1.027 0 0 0 1.42 0z"></path><path d="m60.28 13.3-8.48-8.48-5.66 5.65 8.49 8.49z"></path><path d="m12.2 26.03a1.014 1.014 0 0 0 1.41 0l11.32-11.31a1.014 1.014 0 0 0 0-1.42l-2.83-2.83a1 1 0 0 0 -1.41 0l-11.32 11.32a1 1 0 0 0 0 1.41z"></path></g></svg>